<?xml version="1.0" encoding="UTF-8" standalone="no"?>
<!-- Created with Inkscape (http://www.inkscape.org/) -->

<svg
   xmlns:dc="http://purl.org/dc/elements/1.1/"
   xmlns:cc="http://creativecommons.org/ns#"
   xmlns:rdf="http://www.w3.org/1999/02/22-rdf-syntax-ns#"
   xmlns:svg="http://www.w3.org/2000/svg"
   xmlns="http://www.w3.org/2000/svg"
   xmlns:sodipodi="http://sodipodi.sourceforge.net/DTD/sodipodi-0.dtd"
   xmlns:inkscape="http://www.inkscape.org/namespaces/inkscape"
   width="499.86533"
   height="144.92157"
   id="svg2"
   version="1.1"
   inkscape:version="0.48.3.1 r9886"
   sodipodi:docname="New document 1">
  <defs
     id="defs4" />
  <sodipodi:namedview
     id="base"
     pagecolor="#ffffff"
     bordercolor="#666666"
     borderopacity="1.0"
     inkscape:pageopacity="0.0"
     inkscape:pageshadow="2"
     inkscape:zoom="1.4"
     inkscape:cx="341.16015"
     inkscape:cy="81.25936"
     inkscape:document-units="px"
     inkscape:current-layer="layer1"
     showgrid="false"
     inkscape:window-width="1366"
     inkscape:window-height="744"
     inkscape:window-x="0"
     inkscape:window-y="24"
     inkscape:window-maximized="1"
     fit-margin-top="0"
     fit-margin-left="0"
     fit-margin-right="0"
     fit-margin-bottom="0" />
  <metadata
     id="metadata7">
    <rdf:RDF>
      <cc:Work
         rdf:about="">
        <dc:format>image/svg+xml</dc:format>
        <dc:type
           rdf:resource="http://purl.org/dc/dcmitype/StillImage" />
        <dc:title></dc:title>
      </cc:Work>
    </rdf:RDF>
  </metadata>
  <g
     inkscape:label="Layer 1"
     inkscape:groupmode="layer"
     id="layer1"
     transform="translate(74.603862,-734.93829)">
    <path
       style="fill:#000000"
       d="M 121.34535,848.41294 C 74.195907,822.65457 63.593147,817.2256 62.049727,818.05161 c -1.03372,0.55323 -4.36896,1.09155 -7.41165,1.19628 -6.59289,0.22691 -8.37661,-1.43251 -8.37661,-7.79288 l 0,-4.10103 -12.49952,-6.81637 c -14.109637,-7.69442 -15.472964,-7.82684 -21.237056,-2.06274 -6.125687,6.12568 -2.432593,9.40123 6.262897,5.5548 l 4.605696,-2.03732 -0.316008,2.22297 c -0.858196,6.037 -19.114909,10.42407 -23.816009,5.72297 -4.03339,-4.03339 -1.751913,-11.15883 6.318904,-19.73502 1.674415,-1.77926 2.850149,-3.3897 2.612743,-3.57876 -0.237406,-0.18905 -18.881647,-10.37442 -41.431647,-22.63414 -22.55,-12.25973 -41.134401,-22.40869 -41.298668,-22.55325 -0.164267,-0.14456 -0.01433,-1.39573 0.333199,-2.78039 l 0.631868,-2.51756 6.6668,3.01425 c 3.666741,1.65784 24.789383,11.28765 46.939207,21.39956 22.149823,10.11192 41.121983,18.38531 42.160357,18.38531 1.038373,0 6.990787,-2.30273 13.227597,-5.11717 14.05289,-6.34156 30.63785,-11.88706 46.33964,-15.49454 9.78068,-2.24712 14.49674,-2.76915 25.500003,-2.82265 11.83245,-0.0575 13.99409,0.19266 17.5,2.02547 4.86385,2.54271 7.06065,6.03894 6.12838,9.7534 -2.33507,9.30367 -24.35658,23.38464 -44.135423,28.22102 -8.31063,2.03214 -9.15846,2.62611 -6.92979,4.85479 1.98905,1.98904 8.68267,1.47515 19.42244,-1.49113 3.567093,-0.98521 6.676903,-1.60001 6.910693,-1.36622 0.2338,0.23379 -0.39292,1.94401 -1.3927,3.80049 -2.62148,4.86779 -1.51676,6.82612 3.63541,6.44448 5.41081,-0.40079 7.40029,-3.09368 4.13719,-5.59993 -3.76087,-2.88858 -1.38818,-3.88357 10.7238,-4.49705 6.325,-0.32036 16.14221,-1.33168 21.81602,-2.24737 5.67381,-0.91568 10.54891,-1.43199 10.83356,-1.14734 0.28464,0.28464 -0.39476,2.57993 -1.50979,5.10064 -2.24852,5.08314 -1.76881,5.44074 3.65005,2.72089 5.77138,-2.89678 17.12137,-6.38583 18.74569,-5.76252 2.24858,0.86286 1.74196,3.13827 -1.02892,4.6212 -1.37137,0.73394 -3.21883,2.44159 -4.10548,3.79478 -2.12499,3.24314 -0.52923,4.24963 4.8289,3.04574 4.86755,-1.09366 6.88159,-2.10305 12.87533,-6.45279 7.21422,-5.23546 14.76957,-8.36339 20.22797,-8.37442 6.02147,-0.0122 5.90108,1.97224 -0.20991,3.46026 -4.70676,1.14608 -9.12342,4.79037 -9.12342,7.52794 0,5.01344 9.04655,1.90851 17.36703,-5.96066 l 5.36551,-5.07447 2.34555,1.89931 2.34554,1.89931 -2.726,4.11927 -2.72601,4.11927 3.76419,-0.022 c 5.00325,-0.0292 10.34583,-2.58041 18.47793,-8.82369 3.69256,-2.83489 7.41918,-5.15435 8.28139,-5.15435 2.17434,0 2.88692,2.41762 1.48477,5.03756 -1.31601,2.45898 -1.46131,2.49251 5.84694,-1.34907 6.58043,-3.45901 12.49189,-3.46182 12.98384,-0.006 0.46844,3.29044 -2.33173,7.85855 -6.33299,10.33147 -4.15267,2.56649 -4.08091,4.36046 0.1915,4.7878 3.48422,0.3485 31.60964,-12.4651 31.04942,-14.14575 -0.9014,-2.70422 -3.52235,-2.92926 -8.13117,-0.69817 -4.65161,2.25181 -6.45505,2.25516 -5.0671,0.009 0.93246,-1.50876 12.45395,-6.96527 14.70942,-6.9663 0.95137,-4.3e-4 3.46572,0.6938 5.58745,1.54275 l 3.85768,1.54354 13.41256,-6.42666 c 7.3769,-3.53438 26.01255,-12.60678 41.41255,-20.1606 34.54906,-16.94659 60.54435,-29.49953 61.08919,-29.49953 0.22595,0 0.41081,0.79295 0.41081,1.76211 0,1.26862 -11.38182,8.34006 -40.64107,25.25 -22.35258,12.91834 -41.34291,23.9979 -42.20073,24.62125 -1.27362,0.9255 -0.51414,1.36734 4.14107,2.40913 3.1354,0.70167 5.70073,1.59906 5.70073,1.9942 0,1.47958 -2.73402,2.89714 -6.86019,3.55694 -2.76002,0.44135 -5.29649,1.7169 -7.20072,3.62113 -2.92571,2.9257 -4.75168,7.30598 -3.54755,8.51012 1.37763,1.37763 13.41917,-5.51123 19.21717,-10.99398 4.20437,-3.97577 6.62037,-5.58023 7.75,-5.14674 2.2563,0.86582 2.068,2.40046 -0.95907,7.81649 -3.40485,6.09194 -2.32635,7.59935 5.43709,7.59935 5.21482,0 5.47968,0.11216 3.92832,1.66352 -0.99383,0.99383 -3.89179,1.8483 -7.19861,2.12253 -5.14521,0.42668 -5.73416,0.24592 -8.36106,-2.56619 l -2.82596,-3.0252 -6.93971,3.38805 c -14.19252,6.92897 -21.92514,2.69487 -16.92658,-9.26837 0.83222,-1.99178 1.39472,-3.7294 1.25,-3.86137 -0.14472,-0.13197 -4.10419,2.01422 -8.79881,4.76931 -8.34231,4.89577 -8.5267,5.08622 -8.13907,8.4066 0.58558,5.0159 -3.79137,13.08053 -10.64968,19.62224 -5.99788,5.72101 -10.84919,7.91625 -15.52077,7.02322 -3.8855,-0.74276 -4.98024,-2.69473 -4.39973,-7.84497 0.36628,-3.24961 0.17631,-4.42515 -0.66305,-4.10305 -1.09865,0.42159 -73.05179,41.99438 -91.3727,52.79295 -4.55437,2.6844 -8.82937,4.84515 -9.5,4.80166 -0.67063,-0.0435 -27.05658,-14.19432 -58.63544,-31.44628 z m 57.73232,21.77535 c -0.38271,-2.02675 -107.776463,-57.69924 -108.964643,-56.48683 -0.61082,0.62327 106.090853,57.79914 108.471763,58.12437 0.45283,0.0618 0.67463,-0.67504 0.49288,-1.63754 z m 60.97131,-29.75 c 30.33666,-17.05 55.16992,-31.3375 55.18502,-31.75 0.0151,-0.4125 -0.53503,-0.73824 -1.22253,-0.72386 -0.6875,0.0144 -25.775,13.67835 -55.75,30.36439 -35.47815,19.74945 -54.62059,30.94932 -54.8455,32.08903 -0.19003,0.96293 0.0642,1.58645 0.56497,1.38561 0.50077,-0.20084 25.73138,-14.31517 56.06804,-31.36517 z m -17.08433,-7.25 c 34.8476,-16.95727 40.10724,-19.7969 37.19579,-20.0817 -7.06018,-0.69064 -7.55262,-3.41899 -1.75276,-9.7111 2.28042,-2.47396 3.89903,-4.7453 3.59691,-5.04741 -0.93799,-0.93799 -7.99612,3.2108 -13.47167,7.91868 -3.67231,3.15746 -5.83022,4.33817 -7.25,3.96689 -2.47699,-0.64775 -2.47849,-0.47917 0.0483,-5.4321 1.13837,-2.23139 1.85068,-4.27616 1.58291,-4.54393 -0.26778,-0.26777 -2.88667,1.03933 -5.81977,2.90467 -10.87927,6.91881 -19.38205,8.68546 -22.2304,4.61888 l -1.5109,-2.15711 -6.17,2.76893 c -3.39351,1.52291 -7.90444,3.00157 -10.02429,3.2859 -3.37625,0.45285 -4.22559,0.11949 -6.848,-2.68781 l -2.99371,-3.20478 -8.23904,4.12376 c -5.8647,2.93538 -9.22966,4.03796 -11.67652,3.826 -4.45021,-0.3855 -5.98563,-2.7192 -4.45574,-6.77233 1.01348,-2.68501 0.93488,-3.02544 -0.6985,-3.02544 -1.01226,0 -4.86214,1.575 -8.55529,3.5 -6.5932,3.43661 -13.60657,4.64218 -14.89335,2.56012 -0.31949,-0.51694 0.32727,-2.42944 1.43724,-4.25 3.35616,-5.50476 2.9883,-5.81012 -6.99915,-5.81012 -8.91304,0 -9.03762,0.0339 -10.06459,2.73498 -3.66018,9.62702 -5.6606,11.64314 -13.54914,13.65553 l -4.69546,1.19782 24.41697,11.16552 c 13.42933,6.14103 30.71697,14.07283 38.41697,17.62622 7.7,3.55339 14.1387,6.49653 14.30823,6.54032 0.16952,0.0438 18.57225,-8.80789 40.89496,-19.67039 z m 73.93528,-6.73317 c 6.83086,-7.12907 7.76094,-15.35377 1.57153,-13.89703 -6.86562,1.6159 -15.65432,15.82371 -10.95999,17.71792 3.13362,1.26444 5.39941,0.34232 9.38846,-3.82089 z M 90.928137,807.93829 c 0,-3.27738 -0.008,-3.28169 -4.54167,-2.375 -3.96747,0.79349 -3.93946,1.6068 0.125,3.62962 4.38112,2.18041 4.41667,2.17032 4.41667,-1.25462 z m -28.66667,1.16052 c 0,-1.12959 -5.096,-3.39786 -5.87765,-2.6162 -0.7682,0.7682 2.78494,3.45568 4.56878,3.45568 0.71988,0 1.30887,-0.37777 1.30887,-0.83948 z m -13.55,-7.04185 c -2.14726,-1.99204 -24.45,-13.18699 -24.45,-12.27278 0,0.54503 5.2875,3.71085 11.75,7.03515 11.11927,5.71974 14.90069,7.27924 12.7,5.23763 z M 350.2792,778.21519 c 23.17901,-13.04771 41.68664,-23.87544 41.12807,-24.06163 -1.20702,-0.40234 -85.08483,45.94548 -85.12094,47.03473 -0.0137,0.4125 0.39681,0.75 0.91218,0.75 0.51537,0 19.90168,-10.6754 43.08069,-23.7231 z m -281.217553,19.815 c -0.41778,-2.8465 -0.30999,-2.9227 5.08878,-3.59723 17.54385,-2.19196 41.332313,-16.09267 45.541273,-26.61189 1.5091,-3.77164 1.5153,-4.28549 0.0709,-5.88154 -5.36302,-5.92607 -36.904593,-0.95619 -64.288333,10.12966 -16.39627,6.63776 -24.68393,10.80629 -23.58613,11.86336 0.48034,0.46252 5.54387,2.90302 11.2523,5.42334 7.80448,3.44575 11.61757,4.5824 15.37244,4.5824 4.36046,0 4.83313,0.19322 3.72854,1.52417 -1.44494,1.74105 -1.48701,1.67755 2.52006,3.80385 4.21143,2.23473 4.78538,2.06975 4.30017,-1.23612 z M 13.178134,783.5833 c -1.270178,-1.08215 -30.144418,-15.75059 -30.434128,-15.46088 -0.500219,0.50022 27.743754,15.56824 29.434128,15.70296 0.779166,0.0621 1.229166,-0.0468 1,-0.24208 z"
       id="path2993"
       inkscape:connector-curvature="0"
       sodipodi:nodetypes="sssscssscssscssscssssssssssscssssssssssssssssscccccsssssssssscssccssssssssssssssssscsssssssssscssscssscssssssscssscsscssscsssssssssscsscssssssssssssssssssscssssssssssssscssc" />
  </g>
</svg>
